<?xml version="1.0" encoding="UTF-8" standalone="no"?>
<svg
   width="52mm"
   height="52mm"
   viewBox="0 0 52.000001 52.000001"
   version="1.1"
   id="svg8"
   inkscape:version="1.1 (c68e22c387, 2021-05-23)"
   sodipodi:docname="favicon.svg"
   inkscape:export-filename="C:\Users\gahog\Documents\minamino\github\jekyll-theme-minamino\assets\img\Obi_Step4.png"
   inkscape:export-xdpi="96"
   inkscape:export-ydpi="96"
   xmlns:inkscape="http://www.inkscape.org/namespaces/inkscape"
   xmlns:sodipodi="http://sodipodi.sourceforge.net/DTD/sodipodi-0.dtd"
   xmlns="http://www.w3.org/2000/svg"
   xmlns:svg="http://www.w3.org/2000/svg"
   xmlns:rdf="http://www.w3.org/1999/02/22-rdf-syntax-ns#"
   xmlns:cc="http://creativecommons.org/ns#"
   xmlns:dc="http://purl.org/dc/elements/1.1/">
  <defs
     id="defs2">
    <marker
       style="overflow:visible"
       id="marker2212"
       refX="0"
       refY="0"
       orient="auto"
       inkscape:stockid="TriangleOutM"
       inkscape:isstock="true">
      <path
         transform="scale(0.4)"
         style="fill:#b2b2b2;fill-opacity:1;fill-rule:evenodd;stroke:#b2b2b2;stroke-width:1pt;stroke-opacity:1"
         d="M 5.77,0 -2.88,5 V -5 Z"
         id="path2210" />
    </marker>
    <marker
       style="overflow:visible"
       id="TriangleOutM"
       refX="0"
       refY="0"
       orient="auto"
       inkscape:stockid="TriangleOutM"
       inkscape:isstock="true">
      <path
         transform="scale(0.4)"
         style="fill:#ffffff;fill-opacity:1;fill-rule:evenodd;stroke:#b2b2b2;stroke-width:1pt;stroke-opacity:1"
         d="M 5.77,0 -2.88,5 V -5 Z"
         id="path1069" />
    </marker>
    <marker
       style="overflow:visible"
       id="marker1360"
       refX="0"
       refY="0"
       orient="auto"
       inkscape:stockid="Arrow2Mend"
       inkscape:isstock="true">
      <path
         transform="scale(-0.6)"
         d="M 8.7185878,4.0337352 -2.2072895,0.01601326 8.7185884,-4.0017078 c -1.7454984,2.3720609 -1.7354408,5.6174519 -6e-7,8.035443 z"
         style="fill:#b2b2b2;fill-opacity:1;fill-rule:evenodd;stroke:#b2b2b2;stroke-width:0.625;stroke-linejoin:round;stroke-opacity:1"
         id="path1358" />
    </marker>
    <marker
       style="overflow:visible"
       id="Arrow2Mend"
       refX="0"
       refY="0"
       orient="auto"
       inkscape:stockid="Arrow2Mend"
       inkscape:isstock="true">
      <path
         transform="scale(-0.6)"
         d="M 8.7185878,4.0337352 -2.2072895,0.01601326 8.7185884,-4.0017078 c -1.7454984,2.3720609 -1.7354408,5.6174519 -6e-7,8.035443 z"
         style="fill:#9b9bca;fill-opacity:1;fill-rule:evenodd;stroke:#9b9bca;stroke-width:0.625;stroke-linejoin:round;stroke-opacity:1"
         id="path951" />
    </marker>
    <marker
       style="overflow:visible"
       id="Arrow2Lend"
       refX="0"
       refY="0"
       orient="auto"
       inkscape:stockid="Arrow2Lend"
       inkscape:isstock="true">
      <path
         transform="matrix(-1.1,0,0,-1.1,-1.1,0)"
         d="M 8.7185878,4.0337352 -2.2072895,0.01601326 8.7185884,-4.0017078 c -1.7454984,2.3720609 -1.7354408,5.6174519 -6e-7,8.035443 z"
         style="fill:#000000;fill-opacity:1;fill-rule:evenodd;stroke:#000000;stroke-width:0.625;stroke-linejoin:round;stroke-opacity:1"
         id="path945" />
    </marker>
    <marker
       style="overflow:visible"
       id="Arrow1Mend"
       refX="0"
       refY="0"
       orient="auto"
       inkscape:stockid="Arrow1Mend"
       inkscape:isstock="true">
      <path
         transform="matrix(-0.4,0,0,-0.4,-4,0)"
         style="fill:#000000;fill-opacity:1;fill-rule:evenodd;stroke:#000000;stroke-width:1pt;stroke-opacity:1"
         d="M 0,0 5,-5 -12.5,0 5,5 Z"
         id="path933" />
    </marker>
    <marker
       style="overflow:visible"
       id="Arrow1Lend"
       refX="0"
       refY="0"
       orient="auto"
       inkscape:stockid="Arrow1Lend"
       inkscape:isstock="true">
      <path
         transform="matrix(-0.8,0,0,-0.8,-10,0)"
         style="fill:#000000;fill-opacity:1;fill-rule:evenodd;stroke:#000000;stroke-width:1pt;stroke-opacity:1"
         d="M 0,0 5,-5 -12.5,0 5,5 Z"
         id="path927" />
    </marker>
    <marker
       style="overflow:visible"
       id="TriangleOutM-9"
       refX="0"
       refY="0"
       orient="auto"
       inkscape:stockid="TriangleOutM"
       inkscape:isstock="true"
       inkscape:collect="always">
      <path
         transform="scale(0.4)"
         style="fill:#4d4d4d;fill-opacity:1;fill-rule:evenodd;stroke:#4d4d4d;stroke-width:1pt;stroke-opacity:1"
         d="M 5.77,0 -2.88,5 V -5 Z"
         id="path1069-3" />
    </marker>
    <marker
       style="overflow:visible"
       id="TriangleOutM-91"
       refX="0"
       refY="0"
       orient="auto"
       inkscape:stockid="TriangleOutM"
       inkscape:isstock="true">
      <path
         transform="scale(0.4)"
         style="fill:#4d4d4d;fill-opacity:1;fill-rule:evenodd;stroke:#4d4d4d;stroke-width:1pt;stroke-opacity:1"
         d="M 5.77,0 -2.88,5 V -5 Z"
         id="path1069-0" />
    </marker>
    <marker
       style="overflow:visible"
       id="TriangleOutM-91-5"
       refX="0"
       refY="0"
       orient="auto"
       inkscape:stockid="TriangleOutM"
       inkscape:isstock="true">
      <path
         transform="scale(0.4)"
         style="fill:#4d4d4d;fill-opacity:1;fill-rule:evenodd;stroke:#4d4d4d;stroke-width:1pt;stroke-opacity:1"
         d="M 5.77,0 -2.88,5 V -5 Z"
         id="path1069-0-8" />
    </marker>
    <marker
       style="overflow:visible"
       id="marker2212-2"
       refX="0"
       refY="0"
       orient="auto"
       inkscape:stockid="TriangleOutM"
       inkscape:isstock="true">
      <path
         transform="scale(0.4)"
         style="fill:#4d4d4d;fill-opacity:1;fill-rule:evenodd;stroke:#4d4d4d;stroke-width:1pt;stroke-opacity:1"
         d="M 5.77,0 -2.88,5 V -5 Z"
         id="path2210-4" />
    </marker>
  </defs>
  <sodipodi:namedview
     id="base"
     pagecolor="#ffffff"
     bordercolor="#666666"
     borderopacity="1.0"
     inkscape:pageopacity="0.0"
     inkscape:pageshadow="2"
     inkscape:zoom="2"
     inkscape:cx="166.5"
     inkscape:cy="160.75"
     inkscape:document-units="mm"
     inkscape:current-layer="layer16"
     inkscape:document-rotation="0"
     showgrid="false"
     inkscape:snap-bbox="true"
     inkscape:bbox-paths="true"
     inkscape:window-width="1920"
     inkscape:window-height="1009"
     inkscape:window-x="-8"
     inkscape:window-y="-8"
     inkscape:window-maximized="1"
     inkscape:bbox-nodes="true"
     inkscape:snap-bbox-edge-midpoints="true"
     inkscape:snap-bbox-midpoints="true"
     fit-margin-top="0"
     fit-margin-left="0"
     fit-margin-right="0"
     fit-margin-bottom="0"
     units="mm"
     inkscape:pagecheckerboard="0"
     showguides="true"
     inkscape:guide-bbox="true">
    <sodipodi:guide
       position="29.724347,82.513924"
       orientation="1,0"
       id="guide943" />
  </sodipodi:namedview>
  <metadata
     id="metadata5">
    <rdf:RDF>
      <cc:Work
         rdf:about="">
        <dc:format>image/svg+xml</dc:format>
        <dc:type
           rdf:resource="http://purl.org/dc/dcmitype/StillImage" />
      </cc:Work>
    </rdf:RDF>
  </metadata>
  <g
     inkscape:groupmode="layer"
     id="layer5"
     inkscape:label="青、終・ループ(2,3,4)"
     style="display:inline"
     transform="translate(-75.968716,-73.230154)" />
  <g
     inkscape:groupmode="layer"
     id="layer12"
     inkscape:label="青、途中・上へ(1)"
     style="display:none"
     transform="translate(-75.968716,-73.230154)">
    <path
       id="rect907-0-3-3"
       style="display:inline;opacity:0.997;fill:#8c8cd9;fill-opacity:1;stroke:#000000;stroke-width:3.77953;stroke-linecap:round;stroke-linejoin:round;stroke-miterlimit:4;stroke-dasharray:none"
       d="M 417.69141,42.425781 V 296.83203 448.01367 l 44.2207,-25.53125 V 322.36328 l -0.002,-279.937499 z"
       transform="scale(0.26458333)" />
  </g>
  <g
     inkscape:groupmode="layer"
     id="layer3"
     inkscape:label="Step 0矢印"
     style="display:none"
     transform="translate(-75.968716,-73.230154)">
    <path
       style="display:inline;fill:none;stroke:#4d4d4d;stroke-width:2;stroke-linecap:butt;stroke-linejoin:miter;stroke-miterlimit:4;stroke-dasharray:none;stroke-opacity:1;marker-end:url(#TriangleOutM-9)"
       d="m 192.54174,139.93664 c 11.73759,3.20724 13.97541,-5.90454 3.14042,-9.75534 -54.62751,-18.19058 -78.63902,-14.83608 -79.31223,-70.158217"
       id="path1344"
       sodipodi:nodetypes="czz" />
  </g>
  <g
     inkscape:groupmode="layer"
     id="layer10"
     inkscape:label="赤、終・根元(3,4)"
     style="display:inline"
     transform="translate(-75.968716,-73.230154)" />
  <g
     inkscape:groupmode="layer"
     id="layer2"
     inkscape:label="赤、初期状態(0,1,2)"
     style="display:none"
     transform="translate(-75.968716,-73.230154)">
    <path
       id="path840-3-4-8"
       style="display:inline;fill:#d98c8c;fill-opacity:1;stroke:#000000;stroke-width:3.77953;stroke-linecap:round;stroke-linejoin:round;stroke-miterlimit:4;stroke-dasharray:none"
       d="m 630.43555,300.32812 c -0.10129,8.84899 -14.00618,17.49916 -40.00196,24.88477 v 0.14063 l -250.88476,80.76757 v 0.002 l -308.589846,98.71289 13.31836,42.16797 308.822266,-98.78907 c 24.73708,-8.54702 252.36718,-79.42469 251.46875,-82.22461 17.00617,-6.32908 25.86545,-13.31734 25.86719,-20.40429 3e-4,-0.0412 3e-4,-0.0819 0,-0.12305 z"
       transform="scale(0.26458333)" />
  </g>
  <g
     inkscape:groupmode="layer"
     id="layer9"
     inkscape:label="真ん中の帯(All)"
     style="display:inline"
     transform="translate(-75.968716,-73.230154)" />
  <g
     inkscape:groupmode="layer"
     id="layer11"
     inkscape:label="赤、終・端(4)"
     style="display:inline"
     transform="translate(-75.968716,-73.230154)" />
  <g
     inkscape:groupmode="layer"
     id="g862"
     inkscape:label="別:真ん中の帯(All)"
     style="display:none"
     transform="translate(-75.968716,-73.230154)">
    <path
       id="path860"
       style="display:inline;fill:#b2b2b2;fill-opacity:1;stroke:#000000;stroke-width:1;stroke-linecap:round;stroke-linejoin:round;stroke-miterlimit:4;stroke-dasharray:none"
       d="m 169.00002,81.025543 a 64.000152,11.999999 0 0 1 -63.99971,11.97447 64.000152,11.999999 0 0 1 -64.000229,-11.96775 v 11.96775 a 64.000152,11.999999 0 0 0 63.999709,11.999777 64.000152,11.999999 0 0 0 64.00023,-11.999777 64.000152,11.999999 0 0 0 0,-0.0326 z" />
  </g>
  <g
     inkscape:groupmode="layer"
     id="g854"
     inkscape:label="別:青、終・端(2,3,4別法)"
     style="display:none"
     transform="translate(-75.968716,-73.230154)">
    <path
       id="path852"
       style="display:inline;fill:#d9d9f2;fill-opacity:1;stroke:#000000;stroke-width:1;stroke-linecap:round;stroke-linejoin:round;stroke-miterlimit:4;stroke-dasharray:none"
       d="M 110.5142,78.590046 41.23213,118.59019 47.0819,128.72238 122.21426,85.345186 Z" />
  </g>
  <g
     inkscape:groupmode="layer"
     id="layer8"
     inkscape:label="青、終・根本(1～)"
     style="display:inline"
     transform="translate(-75.968716,-73.230154)" />
  <g
     inkscape:groupmode="layer"
     id="layer1"
     inkscape:label="青、初期状態(0)"
     style="display:none"
     transform="translate(-75.968716,-73.230154)">
    <path
       id="rect854-7"
       style="fill:#b3b3e5;fill-opacity:1;stroke:#000000;stroke-width:1;stroke-linecap:round;stroke-linejoin:round;stroke-miterlimit:4;stroke-dasharray:none"
       d="m 38.850826,82.929364 0.0042,12.52859 c 7.94e-4,2.183436 4.555747,4.193624 8.157628,5.303396 L 191.12681,145.16432 194.53642,133.97224 49.553015,89.928421 C 44.240301,88.314497 38.861007,86.392728 38.850826,82.929364 Z"
       sodipodi:nodetypes="cssccsc" />
  </g>
  <g
     inkscape:groupmode="layer"
     id="layer15"
     inkscape:label="Step 3 矢印"
     style="display:none"
     transform="translate(-75.968716,-73.230154)">
    <path
       style="display:inline;fill:none;stroke:#4d4d4d;stroke-width:2;stroke-linecap:butt;stroke-linejoin:miter;stroke-miterlimit:4;stroke-dasharray:none;stroke-opacity:1;marker-end:url(#marker2212-2)"
       d="m 87.664734,14.748333 c 0.03242,-14.18165307 15.792496,-14.45677415 16.036186,-0.26727 1.06361,82.014629 -3.06128,86.547247 50.24686,110.114887"
       id="path2148"
       sodipodi:nodetypes="ccc" />
  </g>
  <g
     inkscape:groupmode="layer"
     id="layer7"
     inkscape:label="青、終・端(2,3,4)"
     style="display:inline"
     transform="translate(-75.968716,-73.230154)" />
  <g
     inkscape:groupmode="layer"
     id="layer6"
     inkscape:label="赤、終・ループ(4)"
     style="display:inline"
     transform="translate(-75.968716,-73.230154)">
    <g
       id="g1063">
      <path
         id="rect907-5-7"
         style="display:inline;fill:#8c8cd9;fill-opacity:1;stroke:#000000;stroke-width:1;stroke-linecap:round;stroke-linejoin:round;stroke-miterlimit:4;stroke-dasharray:none"
         d="m 110.51418,78.590043 11.70006,6.755143 v 26.489844 l -11.70006,6.75515 z"
         inkscape:export-xdpi="96"
         inkscape:export-ydpi="96" />
      <path
         id="path840-3-4-3"
         style="display:inline;fill:#d98c8c;fill-opacity:1;stroke:#000000;stroke-width:1;stroke-linecap:round;stroke-linejoin:round;stroke-miterlimit:4;stroke-dasharray:none"
         d="m 166.80274,79.499546 c -0.0268,2.34129 -3.7058,4.629978 -10.58385,6.584088 v 0.0372 l -66.379925,21.369746 3.58531,11.13731 c 6.54501,-2.2614 66.772155,-21.014456 66.534445,-21.755256 4.49955,-1.67457 6.84356,-3.52355 6.84402,-5.39864 8e-5,-0.0109 8e-5,-0.0217 0,-0.0326 z"
         sodipodi:nodetypes="ccccccccc"
         inkscape:export-xdpi="96"
         inkscape:export-ydpi="96" />
      <path
         id="path840-3-1"
         style="display:inline;fill:#b2b2b2;fill-opacity:1;stroke:#000000;stroke-width:1;stroke-linecap:round;stroke-linejoin:round;stroke-miterlimit:4;stroke-dasharray:none"
         d="m 169.00002,81.025543 a 64.000152,11.999999 0 0 1 -63.99971,11.97447 64.000152,11.999999 0 0 1 -64.000229,-11.96775 v 11.96775 a 64.000152,11.999999 0 0 0 63.999709,11.999777 64.000152,11.999999 0 0 0 64.00023,-11.999777 64.000152,11.999999 0 0 0 0,-0.0326 z" />
      <rect
         style="display:inline;fill:#e5b3b3;fill-opacity:1;stroke:#000000;stroke-width:1;stroke-linecap:round;stroke-linejoin:round;stroke-miterlimit:4;stroke-dasharray:none"
         id="rect907"
         width="80"
         height="11.7"
         x="120.20193"
         y="21.349348"
         transform="rotate(30)" />
      <path
         id="rect854-7-7"
         style="display:inline;fill:#b3b3e5;fill-opacity:1;stroke:#000000;stroke-width:1;stroke-linecap:round;stroke-linejoin:round;stroke-miterlimit:4;stroke-dasharray:none"
         d="m 38.850826,82.929364 0.0041,12.528429 c 5.23e-4,1.59964 4.488177,4.160543 8.157641,5.303557 l 61.346123,19.10891 13.68392,-7.90029 L 49.552988,89.928423 C 44.240682,88.313137 38.850357,86.324479 38.850799,82.929364 Z"
         sodipodi:nodetypes="cssccscc" />
      <path
         id="rect907-0-3"
         style="display:inline;fill:#d9d9f2;fill-opacity:1;stroke:#000000;stroke-width:1;stroke-linecap:round;stroke-linejoin:round;stroke-miterlimit:4;stroke-dasharray:none;stroke-opacity:1;paint-order:normal"
         d="M 110.5142,78.590046 41.23213,118.59019 47.0819,128.72238 122.21426,85.345186 Z" />
      <path
         id="rect907-5-9"
         style="display:inline;fill:#f2d9d9;fill-opacity:1;stroke:#000000;stroke-width:1;stroke-linecap:round;stroke-linejoin:round;stroke-miterlimit:4;stroke-dasharray:none"
         d="m 93.423255,78.590046 -11.70006,6.75514 v 26.489844 l 11.70006,6.75515 z" />
    </g>
  </g>
  <g
     inkscape:groupmode="layer"
     id="layer4"
     inkscape:label="赤、途中・持ち上げた端(3)"
     style="display:none"
     transform="translate(-75.968716,-73.230154)">
    <path
       id="rect907-0-3-3-3"
       style="display:inline;fill:#f2d9d9;fill-opacity:1;stroke:#000000;stroke-width:3.77953;stroke-linecap:round;stroke-linejoin:round;stroke-miterlimit:4;stroke-dasharray:none"
       d="m 308.88086,42.425781 -0.002,280.140629 v 100.11914 l 44.2207,25.53125 V 297.03516 42.425781 Z"
       transform="scale(0.26458333)" />
  </g>
  <g
     inkscape:groupmode="layer"
     id="layer13"
     inkscape:label="Step 1 矢印"
     style="display:none"
     transform="translate(-75.968716,-73.230154)">
    <path
       style="display:inline;fill:none;stroke:#4d4d4d;stroke-width:2;stroke-linecap:butt;stroke-linejoin:miter;stroke-miterlimit:4;stroke-dasharray:none;stroke-opacity:1;marker-end:url(#TriangleOutM-91)"
       d="M 116.02182,15.007042 C 72.638499,33.984114 57.547945,71.447625 50.864814,116.4188"
       id="path1662"
       sodipodi:nodetypes="cc" />
  </g>
  <g
     inkscape:groupmode="layer"
     id="layer14"
     inkscape:label="Step 2 矢印"
     style="display:none"
     transform="translate(-75.968716,-73.230154)">
    <path
       style="display:inline;fill:none;stroke:#4d4d4d;stroke-width:2;stroke-linecap:butt;stroke-linejoin:miter;stroke-miterlimit:4;stroke-dasharray:none;stroke-opacity:1;marker-end:url(#TriangleOutM-91-5)"
       d="M 15.032082,136.63664 C 86.562278,136.94537 83.041321,92.756431 82.728147,21.193205"
       id="path1662-5"
       sodipodi:nodetypes="cc" />
  </g>
  <g
     inkscape:groupmode="layer"
     id="layer16"
     inkscape:label="Frame"
     transform="translate(-78.277473,-80.255585)" />
</svg>
